<svg width="139" height="64" viewBox="0 0 139 64" fill="none" xmlns="http://www.w3.org/2000/svg">
<path d="M27.1289 1C27.6881 19.5483 29.8749 36.8088 35.9986 54.1307" stroke="#737373" stroke-linecap="round"/>
<path d="M42.8209 10.962C37.3965 29.2958 26.2515 45.6069 18.5999 62.9858" stroke="#737373" stroke-linecap="round"/>
<path d="M39.4099 51.179C33.6472 79.4092 87.2201 47.2468 60.4091 44.7837C50.1028 43.8369 48.634 52.418 59.7079 53.4748C63.2146 53.8095 84.0736 50.7724 78.5655 50.9126C66.4655 51.2205 66.6959 59.8222 79.0961 61.182C85.9943 61.9385 127.037 56.6924 107.335 43.6358C96.1679 36.2351 81.4545 34.5957 68.786 32.9769C47.5882 30.2682 24.1313 26.5267 2.75608 28.9183C-5.6138 29.8547 18.2083 36.494 26.4465 38.3473C63.4955 46.6824 100.618 53.4756 138 59.6652" stroke="#737373" stroke-linecap="round"/>
</svg>
