<svg width="187" height="149" viewBox="0 0 187 149" fill="none" xmlns="http://www.w3.org/2000/svg">
<path d="M81.8125 22.2805V32.8637M105.187 22.2805V32.8637M81.8125 82.2519V92.835M105.187 82.2519V92.835M120.771 46.9746H132.458M120.771 64.6132H132.458M54.5417 46.9746H66.2292M54.5417 64.6132H66.2292M84.9292 82.2519H102.071C108.617 82.2519 111.889 82.2519 114.389 81.0983C116.589 80.0837 118.376 78.4648 119.497 76.4734C120.771 74.2093 120.771 71.2461 120.771 65.3188V49.7968C120.771 43.8696 120.771 40.9061 119.497 38.6422C118.376 36.6509 116.589 35.0318 114.389 34.0172C111.889 32.8637 108.617 32.8637 102.071 32.8637H84.9292C78.3835 32.8637 75.1107 32.8637 72.6106 34.0172C70.4115 35.0318 68.6235 36.6509 67.503 38.6422C66.2292 40.9061 66.2292 43.8696 66.2292 49.7968V65.3188C66.2292 71.2461 66.2292 74.2093 67.503 76.4734C68.6235 78.4648 70.4115 80.0837 72.6106 81.0983C75.1107 82.2519 78.3835 82.2519 84.9292 82.2519Z" stroke="url(#paint0_linear_118_155)" stroke-width="2" stroke-linecap="round" stroke-linejoin="round"/>
<path d="M13.6963 10.4439H173.304C174.817 10.4439 176.043 11.6121 176.043 13.0548V103.569C176.043 105.012 174.817 106.18 173.304 106.18H13.6963C12.1826 106.18 10.957 105.012 10.957 103.569V93.1836C10.957 91.7405 12.1826 90.5723 13.6963 90.5723C15.21 90.5723 16.4355 91.7405 16.4355 93.1836V100.958H170.564V15.6661H16.4355V82.0434C16.4355 83.4849 15.21 84.6543 13.6963 84.6543C12.1826 84.6543 10.957 83.4849 10.957 82.0434V13.0548C10.957 11.6121 12.1826 10.4439 13.6963 10.4439Z" fill="url(#paint1_linear_118_155)"/>
<path fill-rule="evenodd" clip-rule="evenodd" d="M178.566 0H140.25C138.736 0 137.511 1.16816 137.511 2.61096C137.511 4.0538 138.736 5.22196 140.25 5.22196H178.566C180.196 5.22196 181.522 6.48528 181.522 8.03949V108.584C181.522 110.139 180.196 111.402 178.566 111.402H8.43463C6.80392 111.402 5.47852 110.139 5.47852 108.584V8.03949C5.47852 6.48528 6.80392 5.22196 8.43463 5.22196H128.562C130.076 5.22196 131.302 4.0538 131.302 2.61096C131.302 1.16816 130.076 0 128.562 0H8.43463C3.7836 0 0 3.6064 0 8.03949V108.584C0 113.018 3.7836 116.624 8.43463 116.624H67.8222C66.7621 126.202 60.1182 131.795 58.0238 133.334H46.385C41.8537 133.334 38.167 136.848 38.167 141.167C38.167 145.486 41.8537 149 46.385 149H140.615C145.146 149 148.833 145.486 148.833 141.167C148.833 136.848 145.146 133.334 140.615 133.334H128.983C126.916 131.8 120.249 126.157 119.181 116.624H178.566C183.216 116.624 187 113.018 187 108.584V8.03949C187 3.6064 183.216 0 178.566 0ZM140.615 143.778C142.126 143.778 143.355 142.607 143.355 141.167C143.355 139.727 142.126 138.556 140.615 138.556H46.385C44.8738 138.556 43.6454 139.727 43.6454 141.167C43.6454 142.607 44.8738 143.778 46.385 143.778H140.615ZM73.3309 116.624C72.6476 124.187 69.0848 129.759 65.8735 133.334H121.127C117.915 129.759 114.352 124.187 113.669 116.624H73.3309Z" fill="url(#paint2_linear_118_155)"/>
<defs>
<linearGradient id="paint0_linear_118_155" x1="50.6458" y1="38.1553" x2="141.345" y2="98.7202" gradientUnits="userSpaceOnUse">
<stop stop-color="#00D1FF"/>
<stop offset="1" stop-color="#DD1BFF"/>
</linearGradient>
<linearGradient id="paint1_linear_118_155" x1="5.84375" y1="52.4517" x2="180.081" y2="86.1671" gradientUnits="userSpaceOnUse">
<stop stop-color="#00C2FF"/>
<stop offset="1" stop-color="#B968C7"/>
<stop offset="1" stop-color="#D900FF"/>
</linearGradient>
<linearGradient id="paint2_linear_118_155" x1="5.84375" y1="52.4517" x2="180.081" y2="86.1671" gradientUnits="userSpaceOnUse">
<stop stop-color="#00C2FF"/>
<stop offset="1" stop-color="#B968C7"/>
<stop offset="1" stop-color="#D900FF"/>
</linearGradient>
</defs>
</svg>
