<svg width="190" height="150" viewBox="0 0 190 150" fill="none" xmlns="http://www.w3.org/2000/svg">
<path d="M13.916 10.514H176.084C177.622 10.514 178.867 11.6901 178.867 13.1424V104.264C178.867 105.717 177.622 106.893 176.084 106.893H13.916C12.378 106.893 11.1328 105.717 11.1328 104.264V93.809C11.1328 92.3562 12.378 91.1802 13.916 91.1802C15.454 91.1802 16.6992 92.3562 16.6992 93.809V101.636H173.301V15.7712H16.6992V82.594C16.6992 84.0452 15.454 85.2224 13.916 85.2224C12.378 85.2224 11.1328 84.0452 11.1328 82.594V13.1424C11.1328 11.6901 12.378 10.514 13.916 10.514Z" fill="url(#paint0_linear_119_173)"/>
<path fill-rule="evenodd" clip-rule="evenodd" d="M181.43 0H142.5C140.962 0 139.717 1.176 139.717 2.62849C139.717 4.08101 140.962 5.25701 142.5 5.25701H181.43C183.087 5.25701 184.434 6.52881 184.434 8.09344V109.313C184.434 110.878 183.087 112.15 181.43 112.15H8.56995C6.91307 112.15 5.56641 110.878 5.56641 109.313V8.09344C5.56641 6.52881 6.91307 5.25701 8.56995 5.25701H130.625C132.163 5.25701 133.408 4.08101 133.408 2.62849C133.408 1.176 132.163 0 130.625 0H8.56995C3.8443 0 0 3.6306 0 8.09344V109.313C0 113.776 3.8443 117.406 8.56995 117.406H68.9102C67.8332 127.049 61.0826 132.679 58.9546 134.229H47.1291C42.5252 134.229 38.7793 137.766 38.7793 142.114C38.7793 146.462 42.5252 150 47.1291 150H142.871C147.475 150 151.221 146.462 151.221 142.114C151.221 137.766 147.475 134.229 142.871 134.229H131.053C128.952 132.685 122.178 127.003 121.093 117.406H181.43C186.156 117.406 190 113.776 190 109.313V8.09344C190 3.6306 186.156 0 181.43 0ZM142.871 144.743C144.406 144.743 145.654 143.564 145.654 142.114C145.654 140.665 144.406 139.486 142.871 139.486H47.1291C45.5937 139.486 44.3456 140.665 44.3456 142.114C44.3456 143.564 45.5937 144.743 47.1291 144.743H142.871ZM74.5073 117.406C73.813 125.021 70.1931 130.63 66.9303 134.229H123.07C119.807 130.63 116.187 125.021 115.493 117.406H74.5073Z" fill="url(#paint1_linear_119_173)"/>
<path d="M110.25 73.3333L126 60L110.25 46.6667M78.75 46.6667L63 60L78.75 73.3333M100.8 36L88.2 84" stroke="url(#paint2_linear_119_173)" stroke-width="2" stroke-linecap="round" stroke-linejoin="round"/>
<defs>
<linearGradient id="paint0_linear_119_173" x1="5.9375" y1="52.8037" x2="185.669" y2="77.8995" gradientUnits="userSpaceOnUse">
<stop stop-color="#00C2FF"/>
<stop offset="1" stop-color="#B968C7"/>
</linearGradient>
<linearGradient id="paint1_linear_119_173" x1="5.9375" y1="52.8037" x2="185.669" y2="77.8995" gradientUnits="userSpaceOnUse">
<stop stop-color="#00C2FF"/>
<stop offset="1" stop-color="#B968C7"/>
</linearGradient>
<linearGradient id="paint2_linear_119_173" x1="58.5" y1="37.5" x2="139" y2="87.5" gradientUnits="userSpaceOnUse">
<stop stop-color="#00C2FF"/>
<stop offset="1" stop-color="#B53AB0"/>
</linearGradient>
</defs>
</svg>
