<svg width="190" height="150" viewBox="0 0 190 150" fill="none" xmlns="http://www.w3.org/2000/svg">
<path d="M71.25 37.3832L89.0625 54.2056M71.25 37.3832H59.375L55.4166 26.1682L59.375 22.4299L71.25 26.1682V37.3832ZM123.734 25.2001L113.333 35.0229C111.765 36.5034 110.981 37.2436 110.688 38.0971C110.429 38.848 110.429 39.6567 110.688 40.4076C110.981 41.2611 111.765 42.0013 113.333 43.4818L114.272 44.3687C115.839 45.8492 116.623 46.5894 117.527 46.8667C118.322 47.1107 119.178 47.1107 119.973 46.8667C120.877 46.5894 121.661 45.8492 123.228 44.3687L132.958 35.1803C134.005 37.5884 134.583 40.2258 134.583 42.9907C134.583 54.3461 124.836 63.5514 112.812 63.5514C111.363 63.5514 109.946 63.4176 108.576 63.1623C106.652 62.8041 105.689 62.6247 105.106 62.6796C104.486 62.738 104.181 62.8258 103.631 63.1036C103.114 63.3649 102.596 63.8542 101.559 64.8337L73.2291 91.5888C69.9499 94.6856 64.6333 94.6856 61.3541 91.5888C58.0749 88.492 58.0749 83.4707 61.3541 80.3739L89.684 53.6186C90.7209 52.6394 91.2391 52.1497 91.5158 51.6617C91.8099 51.1428 91.903 50.8541 91.9647 50.2685C92.0229 49.7176 91.8329 48.8089 91.4537 46.9916C91.1833 45.6974 91.0416 44.3597 91.0416 42.9907C91.0416 31.6353 100.789 22.4299 112.812 22.4299C116.793 22.4299 120.523 23.4386 123.734 25.2001ZM95.0004 71.0277L116.771 91.5884C120.05 94.6853 125.367 94.6853 128.646 91.5884C131.925 88.4916 131.925 83.4703 128.646 80.3735L110.736 63.4591C109.468 63.3458 108.231 63.1297 107.036 62.8198C105.496 62.4206 103.807 62.7107 102.678 63.7768L95.0004 71.0277Z" stroke="url(#paint0_linear_118_148)" stroke-width="2" stroke-linecap="round" stroke-linejoin="round"/>
<path d="M13.916 10.514H176.084C177.622 10.514 178.867 11.6901 178.867 13.1424V104.264C178.867 105.717 177.622 106.893 176.084 106.893H13.916C12.378 106.893 11.1328 105.717 11.1328 104.264V93.809C11.1328 92.3562 12.378 91.1802 13.916 91.1802C15.454 91.1802 16.6992 92.3562 16.6992 93.809V101.636H173.301V15.7712H16.6992V82.594C16.6992 84.0452 15.454 85.2224 13.916 85.2224C12.378 85.2224 11.1328 84.0452 11.1328 82.594V13.1424C11.1328 11.6901 12.378 10.514 13.916 10.514Z" fill="url(#paint1_linear_118_148)"/>
<path fill-rule="evenodd" clip-rule="evenodd" d="M181.43 0H142.5C140.962 0 139.717 1.176 139.717 2.62849C139.717 4.08101 140.962 5.25701 142.5 5.25701H181.43C183.087 5.25701 184.434 6.52881 184.434 8.09344V109.313C184.434 110.878 183.087 112.15 181.43 112.15H8.56995C6.91307 112.15 5.56641 110.878 5.56641 109.313V8.09344C5.56641 6.52881 6.91307 5.25701 8.56995 5.25701H130.625C132.163 5.25701 133.408 4.08101 133.408 2.62849C133.408 1.176 132.163 0 130.625 0H8.56995C3.8443 0 0 3.6306 0 8.09344V109.313C0 113.776 3.8443 117.406 8.56995 117.406H68.9102C67.8332 127.049 61.0826 132.679 58.9546 134.229H47.1291C42.5252 134.229 38.7793 137.766 38.7793 142.114C38.7793 146.462 42.5252 150 47.1291 150H142.871C147.475 150 151.221 146.462 151.221 142.114C151.221 137.766 147.475 134.229 142.871 134.229H131.053C128.952 132.685 122.178 127.003 121.093 117.406H181.43C186.156 117.406 190 113.776 190 109.313V8.09344C190 3.6306 186.156 0 181.43 0ZM142.871 144.743C144.406 144.743 145.654 143.564 145.654 142.114C145.654 140.665 144.406 139.486 142.871 139.486H47.1291C45.5937 139.486 44.3456 140.665 44.3456 142.114C44.3456 143.564 45.5937 144.743 47.1291 144.743H142.871ZM74.5073 117.406C73.813 125.021 70.1931 130.63 66.9303 134.229H123.07C119.807 130.63 116.187 125.021 115.493 117.406H74.5073Z" fill="url(#paint2_linear_118_148)"/>
<defs>
<linearGradient id="paint0_linear_118_148" x1="9.89579" y1="16.8225" x2="169.472" y2="112.503" gradientUnits="userSpaceOnUse">
<stop stop-color="#00C2FF"/>
<stop offset="1" stop-color="#B968C7"/>
</linearGradient>
<linearGradient id="paint1_linear_118_148" x1="5.9375" y1="52.8037" x2="185.669" y2="77.8995" gradientUnits="userSpaceOnUse">
<stop stop-color="#00C2FF"/>
<stop offset="1" stop-color="#B968C7"/>
</linearGradient>
<linearGradient id="paint2_linear_118_148" x1="5.9375" y1="52.8037" x2="185.669" y2="77.8995" gradientUnits="userSpaceOnUse">
<stop stop-color="#00C2FF"/>
<stop offset="1" stop-color="#B968C7"/>
</linearGradient>
</defs>
</svg>
