<svg width="188" height="150" viewBox="0 0 188 150" fill="none" xmlns="http://www.w3.org/2000/svg">
<g clip-path="url(#clip0_118_120)">
<mask id="mask0_118_120" style="mask-type:luminance" maskUnits="userSpaceOnUse" x="114" y="58" width="62" height="48">
<path d="M173.086 58.0226L114.586 60.9237L117.003 105.109L175.503 102.207L173.086 58.0226Z" fill="white"/>
</mask>
<g mask="url(#mask0_118_120)">
<path d="M120.887 92.2158C121.467 102.817 128.14 111.67 137.327 115.568L122.614 81.2021C121.267 84.7071 120.678 88.4605 120.887 92.2158ZM165.757 88.6358C165.576 85.3258 164.26 83.0931 163.141 81.3598C161.66 79.2211 160.283 77.4162 160.162 75.2104C160.028 72.7484 161.772 70.3644 164.408 70.2335C164.526 70.2279 164.64 70.2368 164.757 70.238C159.744 66.1094 153.238 63.76 146.253 64.1061C136.88 64.5711 128.895 69.7804 124.496 77.2887C125.126 77.2764 125.72 77.2596 126.224 77.2346C129.03 77.0955 133.356 76.5402 133.356 76.5402C134.798 76.3832 135.084 78.4954 133.649 78.7375C133.649 78.7375 132.204 78.9802 130.592 79.1451L141.949 107.668L146.86 89.8L142.054 78.5764C140.604 78.5633 139.226 78.4604 139.226 78.4604C137.776 78.4477 137.825 76.233 139.275 76.246C139.275 76.246 143.725 76.3665 146.361 76.2356C149.167 76.0965 153.493 75.5412 153.493 75.5412C154.936 75.3842 155.222 77.496 153.786 77.7384C153.786 77.7384 152.339 77.9816 150.729 78.146L162 106.453L164.187 97.3941C165.145 93.6325 165.883 90.9281 165.757 88.6358Z" fill="url(#paint0_linear_118_120)"/>
<path d="M148.317 93.2044L141.544 116.951C144.044 117.553 146.617 117.794 149.183 117.667C152.307 117.512 155.274 116.824 158.01 115.707C157.929 115.594 157.858 115.473 157.799 115.348L148.317 93.2044ZM170.558 76.8695C170.72 77.7168 170.836 78.6297 170.89 79.6142C171.038 82.332 170.697 85.4119 169.374 89.3074L162.472 113.365C170.195 108.327 175.089 99.4351 174.548 89.555C174.31 85.0636 172.937 80.6997 170.558 76.8695Z" fill="url(#paint1_linear_118_120)"/>
<path d="M146.011 59.6691C128.765 60.5242 115.5 75.2239 116.441 92.4366C117.383 109.652 132.18 122.959 149.426 122.104C166.671 121.249 179.939 106.55 178.997 89.3343C178.055 72.1216 163.256 58.814 146.011 59.6691ZM149.348 120.672C132.893 121.489 118.774 108.79 117.876 92.3653C116.977 75.9425 129.633 61.9171 146.089 61.1011C162.543 60.2848 176.661 72.9826 177.559 89.4055C178.458 105.83 165.802 119.856 149.348 120.672Z" fill="url(#paint2_linear_118_120)"/>
</g>
<path d="M13.7695 10.8555H174.231C175.752 10.8555 176.984 12.0287 176.984 13.4774V104.376C176.984 105.825 175.752 106.998 174.231 106.998H13.7695C12.2477 106.998 11.0156 105.825 11.0156 104.376V93.9465C11.0156 92.4974 12.2477 91.3242 13.7695 91.3242C15.2913 91.3242 16.5234 92.4974 16.5234 93.9465V101.754H171.476V16.0998H16.5234V82.759C16.5234 84.2067 15.2913 85.381 13.7695 85.381C12.2477 85.381 11.0156 84.2067 11.0156 82.759V13.4774C11.0156 12.0287 12.2477 10.8555 13.7695 10.8555Z" fill="url(#paint3_linear_118_120)"/>
<path fill-rule="evenodd" clip-rule="evenodd" d="M179.52 0.367188H141C139.478 0.367188 138.246 1.54031 138.246 2.98924C138.246 4.43821 139.478 5.61133 141 5.61133H179.52C181.16 5.61133 182.492 6.88003 182.492 8.44083V109.412C182.492 110.974 181.16 112.242 179.52 112.242H8.47974C6.8403 112.242 5.50781 110.974 5.50781 109.412V8.44083C5.50781 6.88003 6.8403 5.61133 8.47974 5.61133H129.25C130.772 5.61133 132.004 4.43821 132.004 2.98924C132.004 1.54031 130.772 0.367188 129.25 0.367188H8.47974C3.80383 0.367188 0 3.98892 0 8.44083V109.412C0 113.865 3.80383 117.486 8.47974 117.486H68.1849C67.1191 127.105 60.4397 132.722 58.3341 134.267H46.633C42.0775 134.267 38.3711 137.796 38.3711 142.134C38.3711 146.471 42.0775 150 46.633 150H141.367C145.922 150 149.629 146.471 149.629 142.134C149.629 137.796 145.922 134.267 141.367 134.267H129.673C127.595 132.727 120.892 127.06 119.818 117.486H179.52C184.196 117.486 188 113.865 188 109.412V8.44083C188 3.98892 184.196 0.367188 179.52 0.367188ZM141.367 144.756C142.886 144.756 144.121 143.58 144.121 142.134C144.121 140.688 142.886 139.512 141.367 139.512H46.633C45.1137 139.512 43.8788 140.688 43.8788 142.134C43.8788 143.58 45.1137 144.756 46.633 144.756H141.367ZM73.723 117.486C73.036 125.082 69.4543 130.677 66.2257 134.267H121.774C118.546 130.677 114.964 125.082 114.277 117.486H73.723Z" fill="url(#paint4_linear_118_120)"/>
<path d="M105.75 53.0417L103.892 38.888C103.163 33.3368 102.799 30.5612 101.426 28.4695C100.218 26.6265 98.4713 25.1587 96.4009 24.2451C94.0509 23.2084 91.113 23.2084 85.2368 23.2084H47.9294C42.0536 23.2084 39.1159 23.2084 36.7658 24.2451C34.6953 25.1587 32.9489 26.6265 31.7401 28.4695C30.368 30.5612 30.0036 33.3368 29.2748 38.888L27.4167 53.0417M41.125 67.9584H92.0417M41.125 67.9584C33.5541 67.9584 27.4167 62.1148 27.4167 54.9063C27.4167 47.6978 33.5541 41.8542 41.125 41.8542H92.0417C99.6126 41.8542 105.75 47.6978 105.75 54.9063C105.75 62.1148 99.6126 67.9584 92.0417 67.9584M41.125 67.9584C33.5541 67.9584 27.4167 73.802 27.4167 81.0105C27.4167 88.2189 33.5541 94.0625 41.125 94.0625H92.0417C99.6126 94.0625 105.75 88.2189 105.75 81.0105C105.75 73.802 99.6126 67.9584 92.0417 67.9584M43.0833 54.9063H43.1225M43.0833 81.0105H43.1225M66.5833 54.9063H90.0833M66.5833 81.0105H90.0833" stroke="url(#paint5_linear_118_120)" stroke-width="2" stroke-linecap="round" stroke-linejoin="round"/>
</g>
<defs>
<linearGradient id="paint0_linear_118_120" x1="104.5" y1="41" x2="163.125" y2="105.129" gradientUnits="userSpaceOnUse">
<stop stop-color="#00C2FF"/>
<stop offset="1" stop-color="#FC6FFF"/>
</linearGradient>
<linearGradient id="paint1_linear_118_120" x1="147.86" y1="62.0252" x2="166.582" y2="123.23" gradientUnits="userSpaceOnUse">
<stop stop-color="#00C2FF"/>
<stop offset="0.545" stop-color="#AF6FD7"/>
</linearGradient>
<linearGradient id="paint2_linear_118_120" x1="3.00001" y1="2" x2="173.985" y2="107.619" gradientUnits="userSpaceOnUse">
<stop stop-color="#00C2FF"/>
<stop offset="1" stop-color="#EA7EFD"/>
</linearGradient>
<linearGradient id="paint3_linear_118_120" x1="5.875" y1="53.0417" x2="183.77" y2="77.6798" gradientUnits="userSpaceOnUse">
<stop stop-color="#00C2FF"/>
<stop offset="1" stop-color="#B968C7"/>
</linearGradient>
<linearGradient id="paint4_linear_118_120" x1="5.875" y1="53.0417" x2="183.77" y2="77.6798" gradientUnits="userSpaceOnUse">
<stop stop-color="#00C2FF"/>
<stop offset="1" stop-color="#B968C7"/>
</linearGradient>
<linearGradient id="paint5_linear_118_120" x1="23.5" y1="30.6667" x2="144.445" y2="93.1714" gradientUnits="userSpaceOnUse">
<stop stop-color="#00C2FF"/>
<stop offset="1" stop-color="#B968C7"/>
</linearGradient>
<clipPath id="clip0_118_120">
<rect width="188" height="150" fill="white"/>
</clipPath>
</defs>
</svg>
