<svg width="190" height="152" viewBox="0 0 190 152" fill="none" xmlns="http://www.w3.org/2000/svg">
<path d="M156.25 37.5366C156.25 39.001 156.25 39.7328 156.122 40.3419C155.596 42.8418 153.529 44.7963 150.884 45.2934C150.24 45.4147 149.466 45.4147 147.917 45.4147H111.25C109.701 45.4147 108.927 45.4147 108.283 45.2934C105.638 44.7963 103.571 42.8418 103.045 40.3419C102.917 39.7328 102.917 39.001 102.917 37.5366C102.917 36.0724 102.917 35.3403 103.045 34.7315C103.571 32.2313 105.638 30.2769 108.283 29.7797C108.927 29.6586 109.701 29.6586 111.25 29.6586H147.917C149.466 29.6586 150.24 29.6586 150.884 29.7797C153.529 30.2769 155.596 32.2313 156.122 34.7315C156.25 35.3403 156.25 36.0724 156.25 37.5366ZM156.25 37.5366C159.356 37.5366 160.909 37.5366 162.135 38.0163C163.768 38.6559 165.066 39.883 165.743 41.4271C166.25 42.5856 166.25 44.0537 166.25 46.9903V47.9356C166.25 51.4654 166.25 53.2301 165.523 54.5784C164.884 55.7644 163.864 56.7287 162.61 57.3326C161.184 58.0195 159.317 58.0195 155.584 58.0195H143.583C139.85 58.0195 137.983 58.0195 136.557 58.7065C135.302 59.3104 134.283 60.2747 133.643 61.4607C132.917 62.8087 132.916 64.5737 132.916 68.1035V70.6244M131.583 92.683H134.25C136.117 92.683 137.05 92.683 137.763 92.3397C138.391 92.0371 138.9 91.5556 139.22 90.9624C139.584 90.2884 139.584 89.4061 139.584 87.641V75.6664C139.584 73.9013 139.584 73.019 139.22 72.345C138.9 71.7518 138.391 71.2702 137.763 70.9681C137.05 70.6244 136.117 70.6244 134.25 70.6244H131.583C129.716 70.6244 128.783 70.6244 128.07 70.9681C127.443 71.2702 126.933 71.7518 126.613 72.345C126.25 73.019 126.25 73.9013 126.25 75.6664V87.641C126.25 89.4061 126.25 90.2884 126.613 90.9624C126.933 91.5556 127.443 92.0371 128.07 92.3397C128.783 92.683 129.716 92.683 131.583 92.683Z" stroke="url(#paint0_linear_118_137)" stroke-width="2" stroke-linecap="round" stroke-linejoin="round"/>
<path d="M13.916 10.4269H176.084C177.622 10.4269 178.867 11.5932 178.867 13.0335V103.399C178.867 104.84 177.622 106.006 176.084 106.006H13.916C12.378 106.006 11.1328 104.84 11.1328 103.399V93.0311C11.1328 91.5904 12.378 90.4241 13.916 90.4241C15.454 90.4241 16.6992 91.5904 16.6992 93.0311V100.793H173.301V15.6404H16.6992V81.9091C16.6992 83.3483 15.454 84.5158 13.916 84.5158C12.378 84.5158 11.1328 83.3483 11.1328 81.9091V13.0335C11.1328 11.5932 12.378 10.4269 13.916 10.4269Z" fill="url(#paint1_linear_118_137)"/>
<path fill-rule="evenodd" clip-rule="evenodd" d="M181.43 0H142.5C140.962 0 139.717 1.16625 139.717 2.60669C139.717 4.04717 140.962 5.21341 142.5 5.21341H181.43C183.087 5.21341 184.434 6.47468 184.434 8.02634V108.406C184.434 109.958 183.087 111.22 181.43 111.22H8.56995C6.91307 111.22 5.56641 109.958 5.56641 108.406V8.02634C5.56641 6.47468 6.91307 5.21341 8.56995 5.21341H130.625C132.163 5.21341 133.408 4.04717 133.408 2.60669C133.408 1.16625 132.163 0 130.625 0H8.56995C3.8443 0 0 3.60049 0 8.02634V108.406C0 112.833 3.8443 116.433 8.56995 116.433H68.9102C67.8332 125.995 61.0826 131.579 58.9546 133.116H47.1291C42.5252 133.116 38.7793 136.624 38.7793 140.936C38.7793 145.248 42.5252 148.756 47.1291 148.756H142.871C147.475 148.756 151.221 145.248 151.221 140.936C151.221 136.624 147.475 133.116 142.871 133.116H131.053C128.952 131.585 122.178 125.95 121.093 116.433H181.43C186.156 116.433 190 112.833 190 108.406V8.02634C190 3.60049 186.156 0 181.43 0ZM142.871 143.543C144.406 143.543 145.654 142.374 145.654 140.936C145.654 139.498 144.406 138.329 142.871 138.329H47.1291C45.5937 138.329 44.3456 139.498 44.3456 140.936C44.3456 142.374 45.5937 143.543 47.1291 143.543H142.871ZM74.5073 116.433C73.813 123.984 70.1931 129.547 66.9303 133.116H123.07C119.807 129.547 116.187 123.984 115.493 116.433H74.5073Z" fill="url(#paint2_linear_118_137)"/>
<path d="M67.2916 53.9415H43.5416M51.4583 68.0293H43.5416M75.2083 39.8537H43.5416M91.0416 39.1493V75.7776C91.0416 81.6952 91.0416 84.6536 89.7473 86.914C88.6089 88.9022 86.7924 90.5182 84.5579 91.5314C82.0174 92.6829 78.6924 92.6829 72.0416 92.6829H46.7083C40.0575 92.6829 36.7324 92.6829 34.1922 91.5314C31.9577 90.5182 30.1411 88.9022 29.0026 86.914C27.7083 84.6536 27.7083 81.6952 27.7083 75.7776V39.1493C27.7083 33.2318 27.7083 30.2731 29.0026 28.013C30.1411 26.0248 31.9577 24.4085 34.1922 23.3955C36.7324 22.2439 40.0575 22.2439 46.7083 22.2439H72.0416C78.6924 22.2439 82.0174 22.2439 84.5579 23.3955C86.7924 24.4085 88.6089 26.0248 89.7473 28.013C91.0416 30.2731 91.0416 33.2318 91.0416 39.1493Z" stroke="url(#paint3_linear_118_137)" stroke-width="2" stroke-linecap="round" stroke-linejoin="round"/>
<defs>
<linearGradient id="paint0_linear_118_137" x1="56.3481" y1="7.41467" x2="152.858" y2="82.017" gradientUnits="userSpaceOnUse">
<stop stop-color="#00C2FF"/>
<stop offset="1" stop-color="#B968C7"/>
</linearGradient>
<linearGradient id="paint1_linear_118_137" x1="5.9375" y1="52.3659" x2="185.612" y2="77.6634" gradientUnits="userSpaceOnUse">
<stop stop-color="#00C2FF"/>
<stop offset="1" stop-color="#B968C7"/>
</linearGradient>
<linearGradient id="paint2_linear_118_137" x1="5.9375" y1="52.3659" x2="185.612" y2="77.6634" gradientUnits="userSpaceOnUse">
<stop stop-color="#00C2FF"/>
<stop offset="1" stop-color="#B968C7"/>
</linearGradient>
<linearGradient id="paint3_linear_118_137" x1="19.7916" y1="29.6585" x2="131.884" y2="94.1529" gradientUnits="userSpaceOnUse">
<stop stop-color="#00C2FF"/>
<stop offset="1" stop-color="#B968C7"/>
</linearGradient>
</defs>
</svg>
