<svg width="190" height="149" viewBox="0 0 190 149" fill="none" xmlns="http://www.w3.org/2000/svg">
<path d="M13.916 10.4439H176.084C177.622 10.4439 178.867 11.6121 178.867 13.0548V103.569C178.867 105.012 177.622 106.18 176.084 106.18H13.916C12.378 106.18 11.1328 105.012 11.1328 103.569V93.1836C11.1328 91.7405 12.378 90.5723 13.916 90.5723C15.454 90.5723 16.6992 91.7405 16.6992 93.1836V100.958H173.301V15.6661H16.6992V82.0434C16.6992 83.4849 15.454 84.6543 13.916 84.6543C12.378 84.6543 11.1328 83.4849 11.1328 82.0434V13.0548C11.1328 11.6121 12.378 10.4439 13.916 10.4439Z" fill="url(#paint0_linear_119_174)"/>
<path fill-rule="evenodd" clip-rule="evenodd" d="M181.43 0H142.5C140.962 0 139.717 1.16816 139.717 2.61096C139.717 4.0538 140.962 5.22196 142.5 5.22196H181.43C183.087 5.22196 184.434 6.48528 184.434 8.03949V108.584C184.434 110.139 183.087 111.402 181.43 111.402H8.56995C6.91307 111.402 5.56641 110.139 5.56641 108.584V8.03949C5.56641 6.48528 6.91307 5.22196 8.56995 5.22196H130.625C132.163 5.22196 133.408 4.0538 133.408 2.61096C133.408 1.16816 132.163 0 130.625 0H8.56995C3.8443 0 0 3.6064 0 8.03949V108.584C0 113.018 3.8443 116.624 8.56995 116.624H68.9102C67.8332 126.202 61.0826 131.795 58.9546 133.334H47.1291C42.5252 133.334 38.7793 136.848 38.7793 141.167C38.7793 145.486 42.5252 149 47.1291 149H142.871C147.475 149 151.221 145.486 151.221 141.167C151.221 136.848 147.475 133.334 142.871 133.334H131.053C128.952 131.8 122.178 126.157 121.093 116.624H181.43C186.156 116.624 190 113.018 190 108.584V8.03949C190 3.6064 186.156 0 181.43 0ZM142.871 143.778C144.406 143.778 145.654 142.607 145.654 141.167C145.654 139.727 144.406 138.556 142.871 138.556H47.1291C45.5937 138.556 44.3456 139.727 44.3456 141.167C44.3456 142.607 45.5937 143.778 47.1291 143.778H142.871ZM74.5073 116.624C73.813 124.187 70.1931 129.759 66.9303 133.334H123.07C119.807 129.759 116.187 124.187 115.493 116.624H74.5073Z" fill="url(#paint1_linear_119_174)"/>
<path d="M105.516 48H71.0278C66.0419 48 62 44.269 62 39.6667C62 35.0643 66.0419 31.3333 71.0278 31.3333H105.516M83.4843 84.6667H117.972C122.958 84.6667 127 80.9357 127 76.3333C127 71.731 122.958 68 117.972 68H83.4843M62 76.3333C62 82.7767 67.6586 88 74.6389 88C81.6192 88 87.2778 82.7767 87.2778 76.3333C87.2778 69.89 81.6192 64.6667 74.6389 64.6667C67.6586 64.6667 62 69.89 62 76.3333ZM127 39.6667C127 46.11 121.341 51.3333 114.361 51.3333C107.381 51.3333 101.722 46.11 101.722 39.6667C101.722 33.2233 107.381 28 114.361 28C121.341 28 127 33.2233 127 39.6667Z" stroke="url(#paint2_linear_119_174)" stroke-width="2" stroke-linecap="round" stroke-linejoin="round"/>
<defs>
<linearGradient id="paint0_linear_119_174" x1="5.9375" y1="52.4517" x2="185.623" y2="77.7094" gradientUnits="userSpaceOnUse">
<stop stop-color="#00C2FF"/>
<stop offset="1" stop-color="#B968C7"/>
</linearGradient>
<linearGradient id="paint1_linear_119_174" x1="5.9375" y1="52.4517" x2="185.623" y2="77.7094" gradientUnits="userSpaceOnUse">
<stop stop-color="#00C2FF"/>
<stop offset="1" stop-color="#B968C7"/>
</linearGradient>
<linearGradient id="paint2_linear_119_174" x1="42.5" y1="28" x2="143" y2="90" gradientUnits="userSpaceOnUse">
<stop stop-color="#00C2FF"/>
<stop offset="1" stop-color="#A74BC8"/>
</linearGradient>
</defs>
</svg>
